<svg id="visual" viewBox="0 0 1920 1080" width="1920" height="1080" xmlns="http://www.w3.org/2000/svg" xmlns:xlink="http://www.w3.org/1999/xlink" version="1.1"><g stroke-width="1" stroke-linejoin="bevel"><path d="M983 511L888 585L993 612Z" fill="#004850" stroke="#004850"></path><path d="M983 511L883 473L888 585Z" fill="#00111c" stroke="#00111c"></path><path d="M749 632L888 693L888 585Z" fill="#004850" stroke="#004850"></path><path d="M888 585L888 693L993 612Z" fill="#003a45" stroke="#003a45"></path><path d="M883 473L793 501L888 585Z" fill="#003a45" stroke="#003a45"></path><path d="M888 693L1010 725L993 612Z" fill="#00913a" stroke="#00913a"></path><path d="M1155 470L986 390L983 511Z" fill="#2a9d10" stroke="#2a9d10"></path><path d="M986 390L891 399L883 473Z" fill="#2a9d10" stroke="#2a9d10"></path><path d="M883 473L891 399L793 501Z" fill="#022c38" stroke="#022c38"></path><path d="M1171 609L983 511L993 612Z" fill="#003a45" stroke="#003a45"></path><path d="M983 511L986 390L883 473Z" fill="#008450" stroke="#008450"></path><path d="M793 501L749 632L888 585Z" fill="#006760" stroke="#006760"></path><path d="M1135 720L1171 609L993 612Z" fill="#00111c" stroke="#00111c"></path><path d="M1171 609L1155 470L983 511Z" fill="#00111c" stroke="#00111c"></path><path d="M1010 725L1135 720L993 612Z" fill="#00913a" stroke="#00913a"></path><path d="M912 839L1054 811L1010 725Z" fill="#2a9d10" stroke="#2a9d10"></path><path d="M1010 725L1054 811L1135 720Z" fill="#00913a" stroke="#00913a"></path><path d="M912 839L1010 725L888 693Z" fill="#022c38" stroke="#022c38"></path><path d="M749 632L726 725L888 693Z" fill="#00913a" stroke="#00913a"></path><path d="M761 838L912 839L888 693Z" fill="#008450" stroke="#008450"></path><path d="M856 197L760 352L891 399Z" fill="#008450" stroke="#008450"></path><path d="M891 399L760 352L793 501Z" fill="#051e2a" stroke="#051e2a"></path><path d="M793 501L642 585L749 632Z" fill="#022c38" stroke="#022c38"></path><path d="M749 632L642 585L726 725Z" fill="#00111c" stroke="#00111c"></path><path d="M1245 373L1160 368L1155 470Z" fill="#022c38" stroke="#022c38"></path><path d="M1155 470L1160 368L986 390Z" fill="#00111c" stroke="#00111c"></path><path d="M986 390L856 197L891 399Z" fill="#00765c" stroke="#00765c"></path><path d="M1110 996L1112 810L1054 811Z" fill="#00111c" stroke="#00111c"></path><path d="M1054 811L1112 810L1135 720Z" fill="#022c38" stroke="#022c38"></path><path d="M1135 720L1236 726L1171 609Z" fill="#008450" stroke="#008450"></path><path d="M648 479L642 585L793 501Z" fill="#00111c" stroke="#00111c"></path><path d="M673 394L648 479L793 501Z" fill="#003a45" stroke="#003a45"></path><path d="M760 352L673 394L793 501Z" fill="#022c38" stroke="#022c38"></path><path d="M1112 810L1236 726L1135 720Z" fill="#2a9d10" stroke="#2a9d10"></path><path d="M1171 609L1294 578L1155 470Z" fill="#00111c" stroke="#00111c"></path><path d="M654 762L761 838L726 725Z" fill="#003a45" stroke="#003a45"></path><path d="M726 725L761 838L888 693Z" fill="#004850" stroke="#004850"></path><path d="M1236 726L1294 578L1171 609Z" fill="#022c38" stroke="#022c38"></path><path d="M1308 499L1245 373L1155 470Z" fill="#003a45" stroke="#003a45"></path><path d="M642 585L654 762L726 725Z" fill="#051e2a" stroke="#051e2a"></path><path d="M1139 248L986 390L1160 368Z" fill="#004850" stroke="#004850"></path><path d="M1139 248L1028 212L986 390Z" fill="#00575a" stroke="#00575a"></path><path d="M760 352L724 224L673 394Z" fill="#2a9d10" stroke="#2a9d10"></path><path d="M1294 578L1308 499L1155 470Z" fill="#006760" stroke="#006760"></path><path d="M1245 373L1139 248L1160 368Z" fill="#006760" stroke="#006760"></path><path d="M1028 212L856 197L986 390Z" fill="#00575a" stroke="#00575a"></path><path d="M761 838L908 945L912 839Z" fill="#004850" stroke="#004850"></path><path d="M912 839L908 945L1054 811Z" fill="#008450" stroke="#008450"></path><path d="M731 954L908 945L761 838Z" fill="#022c38" stroke="#022c38"></path><path d="M1112 810L1265 800L1236 726Z" fill="#004850" stroke="#004850"></path><path d="M1236 726L1383 573L1294 578Z" fill="#004850" stroke="#004850"></path><path d="M1294 578L1383 573L1308 499Z" fill="#008450" stroke="#008450"></path><path d="M1238 961L1265 800L1112 810Z" fill="#004850" stroke="#004850"></path><path d="M856 197L724 224L760 352Z" fill="#00913a" stroke="#00913a"></path><path d="M1139 248L1026 155L1028 212Z" fill="#051e2a" stroke="#051e2a"></path><path d="M1028 212L1026 155L856 197Z" fill="#006760" stroke="#006760"></path><path d="M856 197L807 159L724 224Z" fill="#00913a" stroke="#00913a"></path><path d="M673 394L534 513L648 479Z" fill="#006760" stroke="#006760"></path><path d="M648 479L534 513L642 585Z" fill="#00913a" stroke="#00913a"></path><path d="M642 585L547 729L654 762Z" fill="#022c38" stroke="#022c38"></path><path d="M470 343L534 513L673 394Z" fill="#022c38" stroke="#022c38"></path><path d="M891 87L807 159L856 197Z" fill="#00575a" stroke="#00575a"></path><path d="M1435 759L1383 573L1236 726Z" fill="#00575a" stroke="#00575a"></path><path d="M1375 335L1239 202L1245 373Z" fill="#00575a" stroke="#00575a"></path><path d="M490 574L547 729L642 585Z" fill="#00765c" stroke="#00765c"></path><path d="M654 762L621 858L761 838Z" fill="#022c38" stroke="#022c38"></path><path d="M552 799L621 858L654 762Z" fill="#00765c" stroke="#00765c"></path><path d="M930 1080L1001 1004L908 945Z" fill="#006760" stroke="#006760"></path><path d="M908 945L1001 1004L1054 811Z" fill="#00575a" stroke="#00575a"></path><path d="M621 858L731 954L761 838Z" fill="#051e2a" stroke="#051e2a"></path><path d="M534 513L490 574L642 585Z" fill="#004850" stroke="#004850"></path><path d="M399 506L490 574L534 513Z" fill="#004850" stroke="#004850"></path><path d="M1001 1004L1110 996L1054 811Z" fill="#00575a" stroke="#00575a"></path><path d="M547 729L552 799L654 762Z" fill="#2a9d10" stroke="#2a9d10"></path><path d="M621 858L656 956L731 954Z" fill="#008450" stroke="#008450"></path><path d="M376 736L552 799L547 729Z" fill="#00765c" stroke="#00765c"></path><path d="M1245 373L1239 202L1139 248Z" fill="#003a45" stroke="#003a45"></path><path d="M1139 248L1115 93L1026 155Z" fill="#2a9d10" stroke="#2a9d10"></path><path d="M1375 335L1245 373L1308 499Z" fill="#2a9d10" stroke="#2a9d10"></path><path d="M601 143L648 211L724 224Z" fill="#2a9d10" stroke="#2a9d10"></path><path d="M724 224L648 211L673 394Z" fill="#00575a" stroke="#00575a"></path><path d="M1026 155L891 87L856 197Z" fill="#003a45" stroke="#003a45"></path><path d="M807 159L601 143L724 224Z" fill="#051e2a" stroke="#051e2a"></path><path d="M1033 0L891 87L1026 155Z" fill="#003a45" stroke="#003a45"></path><path d="M1442 464L1375 335L1308 499Z" fill="#008450" stroke="#008450"></path><path d="M486 945L656 956L621 858Z" fill="#00575a" stroke="#00575a"></path><path d="M778 1080L930 1080L908 945Z" fill="#004850" stroke="#004850"></path><path d="M1110 996L1238 961L1112 810Z" fill="#006760" stroke="#006760"></path><path d="M1265 800L1435 759L1236 726Z" fill="#00575a" stroke="#00575a"></path><path d="M1239 202L1115 93L1139 248Z" fill="#003a45" stroke="#003a45"></path><path d="M1383 573L1442 464L1308 499Z" fill="#003a45" stroke="#003a45"></path><path d="M1499 569L1442 464L1383 573Z" fill="#004850" stroke="#004850"></path><path d="M778 1080L908 945L731 954Z" fill="#004850" stroke="#004850"></path><path d="M1001 1004L990 1080L1110 996Z" fill="#003a45" stroke="#003a45"></path><path d="M1110 996L1130 1080L1238 961Z" fill="#00765c" stroke="#00765c"></path><path d="M930 1080L990 1080L1001 1004Z" fill="#051e2a" stroke="#051e2a"></path><path d="M1449 799L1435 759L1265 800Z" fill="#006760" stroke="#006760"></path><path d="M601 143L514 267L648 211Z" fill="#004850" stroke="#004850"></path><path d="M648 211L514 267L673 394Z" fill="#003a45" stroke="#003a45"></path><path d="M514 267L470 343L673 394Z" fill="#051e2a" stroke="#051e2a"></path><path d="M648 1080L778 1080L731 954Z" fill="#006760" stroke="#006760"></path><path d="M990 1080L1130 1080L1110 996Z" fill="#051e2a" stroke="#051e2a"></path><path d="M1411 973L1449 799L1265 800Z" fill="#051e2a" stroke="#051e2a"></path><path d="M1390 198L1271 124L1239 202Z" fill="#022c38" stroke="#022c38"></path><path d="M1239 202L1271 124L1115 93Z" fill="#022c38" stroke="#022c38"></path><path d="M1390 198L1239 202L1375 335Z" fill="#006760" stroke="#006760"></path><path d="M638 0L601 143L807 159Z" fill="#022c38" stroke="#022c38"></path><path d="M1435 759L1499 569L1383 573Z" fill="#006760" stroke="#006760"></path><path d="M1442 464L1492 390L1375 335Z" fill="#00913a" stroke="#00913a"></path><path d="M1411 973L1265 800L1238 961Z" fill="#00913a" stroke="#00913a"></path><path d="M1435 759L1517 755L1499 569Z" fill="#00765c" stroke="#00765c"></path><path d="M409 370L399 506L534 513Z" fill="#004850" stroke="#004850"></path><path d="M490 574L376 736L547 729Z" fill="#2a9d10" stroke="#2a9d10"></path><path d="M399 506L388 591L490 574Z" fill="#008450" stroke="#008450"></path><path d="M537 1080L648 1080L656 956Z" fill="#00111c" stroke="#00111c"></path><path d="M1033 0L880 0L891 87Z" fill="#051e2a" stroke="#051e2a"></path><path d="M891 87L786 0L807 159Z" fill="#008450" stroke="#008450"></path><path d="M1033 0L1026 155L1115 93Z" fill="#00913a" stroke="#00913a"></path><path d="M1534 449L1492 390L1442 464Z" fill="#022c38" stroke="#022c38"></path><path d="M1180 0L1033 0L1115 93Z" fill="#00575a" stroke="#00575a"></path><path d="M1491 267L1390 198L1375 335Z" fill="#008450" stroke="#008450"></path><path d="M470 343L409 370L534 513Z" fill="#004850" stroke="#004850"></path><path d="M270 461L299 627L388 591Z" fill="#004850" stroke="#004850"></path><path d="M344 242L409 370L470 343Z" fill="#2a9d10" stroke="#2a9d10"></path><path d="M344 242L470 343L514 267Z" fill="#051e2a" stroke="#051e2a"></path><path d="M880 0L786 0L891 87Z" fill="#022c38" stroke="#022c38"></path><path d="M656 956L648 1080L731 954Z" fill="#004850" stroke="#004850"></path><path d="M486 945L621 858L552 799Z" fill="#00765c" stroke="#00765c"></path><path d="M1499 569L1534 449L1442 464Z" fill="#022c38" stroke="#022c38"></path><path d="M1492 390L1491 267L1375 335Z" fill="#004850" stroke="#004850"></path><path d="M1620 463L1534 449L1499 569Z" fill="#006760" stroke="#006760"></path><path d="M388 591L376 736L490 574Z" fill="#008450" stroke="#008450"></path><path d="M388 853L486 945L552 799Z" fill="#2a9d10" stroke="#2a9d10"></path><path d="M1570 810L1517 755L1449 799Z" fill="#00765c" stroke="#00765c"></path><path d="M1449 799L1517 755L1435 759Z" fill="#051e2a" stroke="#051e2a"></path><path d="M1130 1080L1270 1080L1238 961Z" fill="#051e2a" stroke="#051e2a"></path><path d="M1282 0L1180 0L1271 124Z" fill="#00913a" stroke="#00913a"></path><path d="M1271 124L1180 0L1115 93Z" fill="#00913a" stroke="#00913a"></path><path d="M1368 1080L1411 973L1238 961Z" fill="#003a45" stroke="#003a45"></path><path d="M1684 320L1491 267L1492 390Z" fill="#008450" stroke="#008450"></path><path d="M1370 0L1282 0L1271 124Z" fill="#004850" stroke="#004850"></path><path d="M376 736L388 853L552 799Z" fill="#00913a" stroke="#00913a"></path><path d="M638 0L545 78L601 143Z" fill="#2a9d10" stroke="#2a9d10"></path><path d="M601 143L545 78L514 267Z" fill="#2a9d10" stroke="#2a9d10"></path><path d="M786 0L638 0L807 159Z" fill="#006760" stroke="#006760"></path><path d="M388 591L299 627L376 736Z" fill="#00913a" stroke="#00913a"></path><path d="M376 736L273 797L388 853Z" fill="#004850" stroke="#004850"></path><path d="M270 461L388 591L399 506Z" fill="#00913a" stroke="#00913a"></path><path d="M1423 80L1271 124L1390 198Z" fill="#00913a" stroke="#00913a"></path><path d="M362 1080L537 1080L486 945Z" fill="#003a45" stroke="#003a45"></path><path d="M486 945L537 1080L656 956Z" fill="#00575a" stroke="#00575a"></path><path d="M1270 1080L1368 1080L1238 961Z" fill="#004850" stroke="#004850"></path><path d="M1496 971L1570 810L1449 799Z" fill="#051e2a" stroke="#051e2a"></path><path d="M1496 971L1449 799L1411 973Z" fill="#00765c" stroke="#00765c"></path><path d="M1659 610L1620 463L1499 569Z" fill="#2a9d10" stroke="#2a9d10"></path><path d="M1514 77L1423 80L1390 198Z" fill="#051e2a" stroke="#051e2a"></path><path d="M1645 679L1499 569L1517 755Z" fill="#022c38" stroke="#022c38"></path><path d="M1534 449L1684 320L1492 390Z" fill="#004850" stroke="#004850"></path><path d="M1491 267L1514 77L1390 198Z" fill="#022c38" stroke="#022c38"></path><path d="M1494 1080L1496 971L1411 973Z" fill="#006760" stroke="#006760"></path><path d="M384 134L514 267L545 78Z" fill="#022c38" stroke="#022c38"></path><path d="M384 134L344 242L514 267Z" fill="#004850" stroke="#004850"></path><path d="M409 370L270 461L399 506Z" fill="#003a45" stroke="#003a45"></path><path d="M281 356L270 461L409 370Z" fill="#00111c" stroke="#00111c"></path><path d="M119 613L271 726L299 627Z" fill="#00111c" stroke="#00111c"></path><path d="M299 627L271 726L376 736Z" fill="#003a45" stroke="#003a45"></path><path d="M388 853L374 965L486 945Z" fill="#006760" stroke="#006760"></path><path d="M344 242L281 356L409 370Z" fill="#00111c" stroke="#00111c"></path><path d="M296 955L374 965L388 853Z" fill="#2a9d10" stroke="#2a9d10"></path><path d="M1423 80L1370 0L1271 124Z" fill="#008450" stroke="#008450"></path><path d="M1570 810L1645 679L1517 755Z" fill="#004850" stroke="#004850"></path><path d="M1704 824L1645 679L1570 810Z" fill="#00575a" stroke="#00575a"></path><path d="M510 0L384 134L545 78Z" fill="#00575a" stroke="#00575a"></path><path d="M344 242L282 266L281 356Z" fill="#008450" stroke="#008450"></path><path d="M1645 679L1659 610L1499 569Z" fill="#004850" stroke="#004850"></path><path d="M271 726L273 797L376 736Z" fill="#00575a" stroke="#00575a"></path><path d="M638 0L510 0L545 78Z" fill="#2a9d10" stroke="#2a9d10"></path><path d="M277 80L282 266L344 242Z" fill="#2a9d10" stroke="#2a9d10"></path><path d="M105 488L119 613L270 461Z" fill="#003a45" stroke="#003a45"></path><path d="M1656 217L1514 77L1491 267Z" fill="#00111c" stroke="#00111c"></path><path d="M1423 80L1537 0L1370 0Z" fill="#00111c" stroke="#00111c"></path><path d="M1368 1080L1494 1080L1411 973Z" fill="#00913a" stroke="#00913a"></path><path d="M1686 927L1704 824L1570 810Z" fill="#008450" stroke="#008450"></path><path d="M273 797L296 955L388 853Z" fill="#008450" stroke="#008450"></path><path d="M374 965L362 1080L486 945Z" fill="#00765c" stroke="#00765c"></path><path d="M1799 400L1684 320L1620 463Z" fill="#00765c" stroke="#00765c"></path><path d="M1620 463L1684 320L1534 449Z" fill="#004850" stroke="#004850"></path><path d="M296 955L362 1080L374 965Z" fill="#00765c" stroke="#00765c"></path><path d="M1684 320L1656 217L1491 267Z" fill="#00111c" stroke="#00111c"></path><path d="M1686 927L1570 810L1496 971Z" fill="#008450" stroke="#008450"></path><path d="M1824 621L1765 506L1659 610Z" fill="#004850" stroke="#004850"></path><path d="M1659 610L1765 506L1620 463Z" fill="#003a45" stroke="#003a45"></path><path d="M510 0L362 0L384 134Z" fill="#022c38" stroke="#022c38"></path><path d="M384 134L277 80L344 242Z" fill="#022c38" stroke="#022c38"></path><path d="M1629 0L1537 0L1514 77Z" fill="#022c38" stroke="#022c38"></path><path d="M1514 77L1537 0L1423 80Z" fill="#006760" stroke="#006760"></path><path d="M1824 621L1659 610L1645 679Z" fill="#006760" stroke="#006760"></path><path d="M1772 195L1689 147L1656 217Z" fill="#003a45" stroke="#003a45"></path><path d="M1631 1080L1686 927L1496 971Z" fill="#00575a" stroke="#00575a"></path><path d="M1920 480L1799 400L1765 506Z" fill="#00575a" stroke="#00575a"></path><path d="M362 0L277 80L384 134Z" fill="#00111c" stroke="#00111c"></path><path d="M105 488L270 461L120 356Z" fill="#00575a" stroke="#00575a"></path><path d="M271 726L106 761L273 797Z" fill="#00111c" stroke="#00111c"></path><path d="M273 797L117 857L296 955Z" fill="#008450" stroke="#008450"></path><path d="M270 461L119 613L299 627Z" fill="#004850" stroke="#004850"></path><path d="M270 461L281 356L120 356Z" fill="#00111c" stroke="#00111c"></path><path d="M120 356L281 356L282 266Z" fill="#004850" stroke="#004850"></path><path d="M1772 195L1656 217L1684 320Z" fill="#00575a" stroke="#00575a"></path><path d="M1656 217L1689 147L1514 77Z" fill="#006760" stroke="#006760"></path><path d="M1494 1080L1631 1080L1496 971Z" fill="#00765c" stroke="#00765c"></path><path d="M111 206L120 356L282 266Z" fill="#022c38" stroke="#022c38"></path><path d="M0 720L106 761L119 613Z" fill="#051e2a" stroke="#051e2a"></path><path d="M119 613L106 761L271 726Z" fill="#00575a" stroke="#00575a"></path><path d="M296 955L212 1080L362 1080Z" fill="#00913a" stroke="#00913a"></path><path d="M1765 506L1799 400L1620 463Z" fill="#006760" stroke="#006760"></path><path d="M1824 621L1645 679L1828 721Z" fill="#00111c" stroke="#00111c"></path><path d="M1828 721L1704 824L1811 872Z" fill="#2a9d10" stroke="#2a9d10"></path><path d="M1828 721L1645 679L1704 824Z" fill="#00913a" stroke="#00913a"></path><path d="M106 761L117 857L273 797Z" fill="#004850" stroke="#004850"></path><path d="M1779 0L1629 0L1689 147Z" fill="#006760" stroke="#006760"></path><path d="M1689 147L1629 0L1514 77Z" fill="#004850" stroke="#004850"></path><path d="M1811 872L1704 824L1686 927Z" fill="#00913a" stroke="#00913a"></path><path d="M362 0L257 0L277 80Z" fill="#00765c" stroke="#00765c"></path><path d="M277 80L162 126L282 266Z" fill="#00575a" stroke="#00575a"></path><path d="M120 950L212 1080L296 955Z" fill="#00111c" stroke="#00111c"></path><path d="M257 0L162 126L277 80Z" fill="#022c38" stroke="#022c38"></path><path d="M1799 400L1772 195L1684 320Z" fill="#00575a" stroke="#00575a"></path><path d="M0 505L0 557L105 488Z" fill="#2a9d10" stroke="#2a9d10"></path><path d="M162 126L111 206L282 266Z" fill="#00111c" stroke="#00111c"></path><path d="M117 857L120 950L296 955Z" fill="#008450" stroke="#008450"></path><path d="M0 862L120 950L117 857Z" fill="#003a45" stroke="#003a45"></path><path d="M1826 956L1811 872L1686 927Z" fill="#003a45" stroke="#003a45"></path><path d="M0 505L105 488L0 358Z" fill="#003a45" stroke="#003a45"></path><path d="M105 488L0 557L119 613Z" fill="#022c38" stroke="#022c38"></path><path d="M106 761L0 862L117 857Z" fill="#00765c" stroke="#00765c"></path><path d="M1920 323L1772 195L1799 400Z" fill="#003a45" stroke="#003a45"></path><path d="M1920 205L1794 130L1772 195Z" fill="#00111c" stroke="#00111c"></path><path d="M1772 195L1794 130L1689 147Z" fill="#006760" stroke="#006760"></path><path d="M0 358L105 488L120 356Z" fill="#00913a" stroke="#00913a"></path><path d="M0 981L149 1080L120 950Z" fill="#003a45" stroke="#003a45"></path><path d="M120 950L149 1080L212 1080Z" fill="#004850" stroke="#004850"></path><path d="M1802 1080L1826 956L1686 927Z" fill="#003a45" stroke="#003a45"></path><path d="M1920 717L1920 644L1828 721Z" fill="#00575a" stroke="#00575a"></path><path d="M0 557L0 720L119 613Z" fill="#022c38" stroke="#022c38"></path><path d="M0 249L120 356L111 206Z" fill="#003a45" stroke="#003a45"></path><path d="M0 249L0 358L120 356Z" fill="#2a9d10" stroke="#2a9d10"></path><path d="M1828 721L1920 644L1824 621Z" fill="#022c38" stroke="#022c38"></path><path d="M1824 621L1920 480L1765 506Z" fill="#2a9d10" stroke="#2a9d10"></path><path d="M1920 717L1828 721L1920 845Z" fill="#022c38" stroke="#022c38"></path><path d="M1920 644L1920 480L1824 621Z" fill="#2a9d10" stroke="#2a9d10"></path><path d="M1920 845L1828 721L1811 872Z" fill="#00575a" stroke="#00575a"></path><path d="M0 720L0 862L106 761Z" fill="#00575a" stroke="#00575a"></path><path d="M1631 1080L1802 1080L1686 927Z" fill="#003a45" stroke="#003a45"></path><path d="M1920 960L1920 845L1811 872Z" fill="#006760" stroke="#006760"></path><path d="M0 145L0 249L111 206Z" fill="#00575a" stroke="#00575a"></path><path d="M0 145L111 206L162 126Z" fill="#051e2a" stroke="#051e2a"></path><path d="M1920 480L1920 323L1799 400Z" fill="#004850" stroke="#004850"></path><path d="M1920 0L1779 0L1794 130Z" fill="#00111c" stroke="#00111c"></path><path d="M1794 130L1779 0L1689 147Z" fill="#008450" stroke="#008450"></path><path d="M1920 960L1811 872L1826 956Z" fill="#00111c" stroke="#00111c"></path><path d="M257 0L89 0L162 126Z" fill="#004850" stroke="#004850"></path><path d="M1920 323L1920 205L1772 195Z" fill="#00575a" stroke="#00575a"></path><path d="M0 862L0 981L120 950Z" fill="#00765c" stroke="#00765c"></path><path d="M89 0L0 145L162 126Z" fill="#051e2a" stroke="#051e2a"></path><path d="M1920 1080L1920 960L1826 956Z" fill="#00575a" stroke="#00575a"></path><path d="M1920 205L1920 150L1794 130Z" fill="#051e2a" stroke="#051e2a"></path><path d="M0 981L0 1080L149 1080Z" fill="#2a9d10" stroke="#2a9d10"></path><path d="M1802 1080L1920 1080L1826 956Z" fill="#00765c" stroke="#00765c"></path><path d="M89 0L0 0L0 145Z" fill="#008450" stroke="#008450"></path><path d="M1920 150L1920 0L1794 130Z" fill="#051e2a" stroke="#051e2a"></path></g></svg>